<?xml version="1.0" encoding="UTF-8" standalone="no"?>
<!-- Created with Inkscape (http://www.inkscape.org/) -->

<svg
   width="1920"
   height="1080"
   viewBox="0 0 1920 1080"
   version="1.1"
   id="svg1"
   xml:space="preserve"
   xmlns:xlink="http://www.w3.org/1999/xlink"
   xmlns="http://www.w3.org/2000/svg"
   xmlns:svg="http://www.w3.org/2000/svg"><defs
     id="defs1" /><g
     id="layer1"><g
       id="g1"
       transform="matrix(2.1333333,0,0,1.8,-1.3176893,0.66532023)"><path
         d="M 0,0 H 900 V 600 H 0 Z"
         id="path1" /><path
         fill="#ffffff"
         d="M 0,0 H 900 V 400 H 0 Z"
         id="path2" /><path
         fill="#ce1126"
         d="M 0,0 H 900 V 200 H 0 Z"
         id="path3" /><g
         fill="#ffffff"
         stroke="#c09300"
         id="g24"><path
           stroke-width="1.27"
           stroke-linejoin="round"
           d="m 450.81,302.4 68.488,63.579 -4.876,-115.47 c -0.716,-17.5 -15.924,-13.485 -26.97,-7.172 -11.192,7.172 -23.959,7.172 -37.447,2.437 -13.485,4.735 -26.253,4.735 -37.444,-2.437 -11.046,-6.313 -26.252,-10.328 -26.97,7.172 l -4.879,115.47 z"
           id="path4" /><g
           id="a"
           fill="#c09300"
           stroke="none"><path
             d="m 393.47,246.49 -4.734,112.32 -8.035,7.168 4.879,-115.47 c 2.294,-1.578 6.313,-4.017 7.89,-4.017 z m 9.62,8.04 -4.017,93.955 -8.032,8.22 4.877,-108.49 c 1.579,1.577 6.314,5.45 7.172,6.31 z m 8.75,7.17 -3.155,78.362 -6.455,6.31 4.018,-89.406 c 1.574,1.578 4.73,3.874 5.592,4.734 z m 9.47,4.02 -3.156,66.787 -6.313,5.12 3.156,-74.345 c 1.579,0.717 4.735,2.438 6.313,2.438 z m 8.75,0 -2.297,55.657 -6.455,6.313 2.44,-61.252 c 1.575,0 5.593,0 6.312,-0.718 z"
             id="path5" /></g><use
           xlink:href="#a"
           transform="matrix(-1,0,0,1,900,0)"
           id="use5" /><path
           fill="#c09300"
           stroke-width="1.074"
           d="m 453.16,315.06 9.613,43.755 -3.158,3.155 -3.3,-2.439 -5.451,-39.018 2.296,39.018 -3.157,4.016 -3.157,-4.016 2.296,-39.018 -5.45,39.018 -3.303,2.44 -3.154,-3.156 9.611,-43.755 z"
           id="path6" /><g
           id="b"
           fill="none"
           stroke-width="1.27"
           stroke-linejoin="round"><path
             fill="#ffffff"
             stroke-width="1.189"
             d="m 428.48,295.84 -19.08,67.705 26.255,4.018 11.188,-50.924 -18.363,-20.8 z"
             id="path7" /><path
             d="m 422.17,318.94 2.296,5.593 12.405,-11.848"
             id="path8" /><path
             d="m 430.76,304.92 2.596,24.346 7.89,-10.328 m -3.156,4.012 4.31,14.875 m 1.69,-5.465 -8.718,13.241 m 2.72,13.216 -2.791,-13.198 -2.436,-13.423 -5.84,7.91 -2.562,-9.12 -8.174,8.385 4.157,15.25 5.738,-9.434 3.155,9.612 5.89,-9.162"
             id="path9" /><path
             d="m 414.99,361.97 5.3,-7.444 3.452,11.457 4.735,-8.032 3.157,9.614"
             id="path10" /></g><use
           xlink:href="#b"
           transform="matrix(-1,0,0,1,900,0)"
           id="use10" /><g
           stroke-width="1.27"
           stroke-linejoin="round"
           stroke-linecap="round"
           id="g17"><path
             stroke-width="2.378"
             d="m 450,393.81 c 19.943,0 39.024,-1.578 50.213,-4.734 4.735,-0.859 4.735,-3.298 4.735,-6.455 4.736,-1.578 2.295,-7.17 5.595,-7.17 -3.3,0.862 -4.016,-5.595 -8.033,-4.732 0,-5.597 -5.596,-6.313 -10.33,-4.738 -9.47,3.158 -26.255,3.875 -42.18,3.875 -15.924,-0.717 -32.567,-0.717 -42.18,-3.875 -4.733,-1.575 -10.326,-0.859 -10.326,4.738 -4.018,-0.863 -4.736,5.594 -8.034,4.731 3.299,0 0.86,5.593 5.594,7.17 0,3.158 0,5.597 4.878,6.456 11.045,3.156 30.128,4.734 50.068,4.734 z"
             id="path11" /><path
             d="m 422.89,363.54 c 6.454,0.861 13.628,1.578 19.225,0.861 3.153,0 5.45,5.45 -0.863,6.313 -5.593,0.715 -14.345,0 -19.08,-0.862 -4.017,-0.718 -12.768,-2.295 -18.364,-3.876 -5.594,-2.436 -1.576,-7.168 1.578,-6.452 4.879,1.577 11.192,3.157 17.505,4.016 z m 54.23,0 c -6.457,0.861 -13.628,1.578 -19.081,0.861 -3.3,0 -5.596,5.45 0.717,6.313 5.596,0.715 14.347,0 19.078,-0.862 4.019,-0.718 12.77,-2.295 18.364,-3.876 5.597,-2.436 1.58,-7.168 -1.577,-6.452 -4.878,1.577 -11.19,3.157 -17.501,4.016 z"
             id="path12" /><path
             d="m 403.09,360.39 c -4.877,-0.861 -7.172,4.732 -5.593,7.887 0.717,-1.578 4.017,-1.578 4.735,-3.155 0.858,-2.437 -0.718,-2.437 0.858,-4.732 z m 19.08,14.67 c 0,-3.153 3.155,-2.765 3.155,-5.921 0,-1.577 -0.86,-4.018 -2.437,-4.018 -1.579,0 -3.158,1.578 -3.158,3.156 -0.718,3.157 2.44,3.63 2.44,6.783 z m 22.71,-9.08 c 4.73,0 4.262,6.314 1.966,9.47 0,-2.295 -4.017,-3.156 -4.017,-4.732 0,-2.442 3.626,-2.442 2.051,-4.738 z m 52.03,-5.59 c 4.878,-0.861 7.174,4.732 5.595,7.887 -0.718,-1.578 -4.017,-1.578 -4.734,-3.155 -0.86,-2.437 0.718,-2.437 -0.86,-4.732 z m -19.08,14.67 c 0,-3.153 -3.153,-2.765 -3.153,-5.921 0,-1.577 0.86,-4.018 2.438,-4.018 1.577,0 3.156,1.578 3.156,3.156 0.718,3.157 -2.44,3.63 -2.44,6.783 z m -22.71,-9.08 c -4.732,0 -4.263,6.314 -1.967,9.47 0,-2.295 4.015,-3.156 4.015,-4.732 10e-4,-2.442 -3.626,-2.442 -2.048,-4.738 z"
             id="path13" /><g
             stroke-width="0.891"
             id="g14"><path
               d="m 404.67,361.97 c 1.58,0 4.018,0.718 4.735,1.577 l -4.74,-1.58 z m 7.88,2.44 c 0.862,0 4.018,0.716 5.596,1.575 l -5.6,-1.58 z m 28.7,3.15 c -1.578,0 -4.734,0 -5.593,0.715 l 5.59,-0.72 z m -8.75,0 c -0.859,-0.862 -4.016,-0.862 -5.593,0 h 5.59 z m 62.84,-5.59 c -1.578,0 -3.875,0.718 -4.735,1.577 z m -7.89,2.44 c -0.86,0 -4.017,0.716 -5.595,1.575 l 5.6,-1.58 z m -28.7,3.15 c 1.58,0 4.735,0 5.595,0.715 l -5.6,-0.72 z m 8.75,0 c 0.86,-0.862 4.018,-0.862 5.595,0 h -5.6 z"
               id="path14" /></g><g
             fill="#c09300"
             stroke="none"
             id="g16"><path
               d="m 403.34,374.58 c -0.534,-0.102 -0.815,-0.525 -0.68,-1.025 0.164,-0.609 0.651,-0.957 1.112,-0.794 0.294,0.104 0.83,0.645 0.832,0.839 0.003,0.222 -0.28,0.752 -0.402,0.754 -0.053,0 -0.135,0.046 -0.182,0.102 -0.1,0.118 -0.413,0.175 -0.68,0.124 z m 54.93,3.92 c -0.199,-0.074 -0.515,-0.518 -0.515,-0.724 0.002,-0.387 0.574,-1.018 0.929,-1.021 0.175,-10e-4 0.655,0.248 0.834,0.434 0.325,0.338 0.254,0.893 -0.154,1.208 -0.201,0.155 -0.8,0.212 -1.094,0.103 z m 0.36,2.48 c -0.42,-0.142 -0.574,-0.348 -0.608,-0.814 -0.036,-0.485 0.012,-0.56 0.525,-0.84 l 0.365,-0.2 0.347,0.155 c 0.48,0.214 0.693,0.445 0.71,0.767 0.018,0.348 -0.24,0.704 -0.64,0.883 -0.352,0.158 -0.373,0.16 -0.699,0.05 z"
               id="path15" /><path
               d="m 407.75,370.09 c -0.346,-0.01 -0.821,0.307 -1.094,0.469 -0.649,0.152 -1.404,0.55 -2.031,0.125 -0.617,-0.191 -1.438,-0.04 -1.531,0.718 0.158,0.652 1.071,1.025 1.625,0.594 0.41,-0.537 1.531,-0.853 1.656,0.063 -0.457,0.692 -0.405,1.609 -0.781,2.344 -0.061,0.457 -0.252,0.892 -0.5,1.28 -0.462,0.047 -0.954,-0.007 -1.344,0.282 -0.626,0.034 -1.265,0.345 -1.625,0.875 -0.403,0.578 -0.789,1.165 -0.906,1.875 0.107,0.725 0.937,0.933 1.562,0.969 0.667,0.183 1.335,0.424 2,0.625 1.086,0.243 2.102,0.635 3.188,0.875 1.584,0.477 3.248,0.697 4.844,1.125 0.167,0.055 0.324,0.104 0.5,0.125 0.662,0.137 1.007,-0.583 1.062,-1.125 0.329,-1.16 0.58,-2.34 0.906,-3.5 0.225,-0.466 0.497,-1.517 -0.406,-1.281 -0.515,0.308 -0.952,0.773 -1.594,0.812 -0.874,0.05 -0.375,0.945 -0.031,1.313 0.076,0.587 -0.11,1.288 -0.5,1.75 -0.52,0.33 -1.172,-0.057 -1.719,-0.188 -0.574,0.01 -1.723,-0.283 -1.187,-1.062 0.19,-0.577 0.207,-1.209 0.437,-1.782 0.294,-0.614 0.336,-1.285 0.469,-1.937 -0.361,-0.777 -0.979,0.256 -1.469,0.344 -0.338,0.234 -1.605,0.334 -0.937,0.937 0.575,0.437 0.134,1.197 0.03,1.75 -0.036,0.77 -0.837,0.954 -1.468,0.781 -0.628,-0.03 -1.501,-0.497 -0.969,-1.187 0.121,-0.575 0.322,-1.14 0.438,-1.719 0.237,-0.698 0.437,-1.363 0.687,-2.062 0.109,-0.62 0.331,-1.208 0.625,-1.75 0.018,-0.686 0.478,-1.276 0.47,-1.97 -0.048,-0.338 -0.2,-0.461 -0.407,-0.468 z m -3.594,7.25 a 0.353,0.353 0 0 1 0.219,0.031 c 0.25,0.106 0.257,0.31 0,0.531 -0.112,0.097 -0.24,0.191 -0.281,0.188 -0.468,-0.04 -0.606,-0.11 -0.625,-0.281 -0.017,-0.151 0.03,-0.195 0.343,-0.344 0.156,-0.074 0.263,-0.11 0.344,-0.125 z m -1.036,5.02 c -0.496,-0.466 -0.416,-0.806 0.317,-1.353 0.314,-0.234 0.505,-0.208 0.863,0.12 0.553,0.504 0.575,0.823 0.087,1.255 -0.24,0.213 -0.346,0.257 -0.627,0.26 -0.293,0.003 -0.376,-0.034 -0.64,-0.282 z m 3.05,0.92 a 0.86,0.86 0 0 1 -0.623,-1.088 c 0.129,-0.434 0.203,-0.477 0.84,-0.483 0.716,-0.007 0.854,0.112 0.861,0.741 0.004,0.355 -0.023,0.437 -0.2,0.6 -0.207,0.193 -0.605,0.297 -0.878,0.23 z m 89.11,0.08 c -0.227,-0.189 -0.273,-0.274 -0.275,-0.515 -0.003,-0.41 0.233,-0.712 0.746,-0.944 0.682,-0.308 0.96,-0.266 1.216,0.186 0.342,0.601 0.325,0.847 -0.084,1.252 -0.225,0.224 -0.268,0.237 -0.785,0.242 -0.507,0.003 -0.565,-0.01 -0.818,-0.221 z m -85.06,1.15 c -0.364,-0.097 -0.552,-0.37 -0.557,-0.807 -0.004,-0.334 0.02,-0.387 0.253,-0.57 0.152,-0.118 0.39,-0.22 0.579,-0.245 0.267,-0.037 0.364,-0.013 0.58,0.138 0.55,0.387 0.667,0.77 0.348,1.14 -0.34,0.397 -0.662,0.488 -1.203,0.344 z m 21.92,0.98 c -0.08,-0.1 -0.26,-0.16 -0.278,-0.287 0.032,-0.555 0.059,-1.117 0.236,-1.648 0.096,-0.523 0.012,-1.07 0.194,-1.579 0.187,-0.927 0.187,-1.882 0.402,-2.803 0.01,-0.475 0.055,-0.95 0.193,-1.406 0.157,-0.722 0.013,-1.476 0.226,-2.19 -0.023,-0.267 0.285,-0.983 0.556,-0.559 0.394,0.577 0.912,1.045 1.421,1.516 0.438,0.252 0.036,0.624 -0.266,0.75 -0.416,0.163 -0.517,0.62 -0.487,1.022 -0.058,0.414 -0.225,0.806 -0.242,1.23 -0.087,0.622 -0.07,1.254 -0.151,1.876 -0.182,0.609 -0.113,1.26 -0.173,1.888 0.008,0.398 -0.182,0.76 -0.156,1.16 -0.048,0.406 -0.066,0.894 -0.407,1.172 -0.329,0.166 -0.804,0.138 -1.068,-0.142 z m 29.7,-9.8 c -0.482,0.365 -0.914,0.795 -1.344,1.219 -0.592,0.449 0.487,0.71 0.625,1.094 0.157,0.586 0.148,1.21 0.188,1.812 0.179,0.552 0.258,1.138 0.218,1.719 -0.051,0.622 -0.863,0.491 -1.218,0.844 -0.492,0.207 -0.688,0.69 -1.063,1.03 -0.246,0.484 -0.312,1.077 -0.344,1.626 0.036,0.448 -0.302,0.95 0,1.344 0.04,0.055 0.086,0.132 0.125,0.187 0.102,0.145 0.343,0.03 0.5,0.063 0.504,-0.029 1.029,0.047 1.5,-0.157 1.21,-0.209 2.432,-0.226 3.657,-0.28 0.749,0.023 1.47,-0.238 2.218,-0.22 0.587,0.13 0.851,-0.506 0.844,-0.968 -0.332,-0.654 -0.045,-1.429 -0.312,-2.094 -0.235,-0.673 -0.143,-1.428 -0.25,-2.125 -0.015,-0.549 -0.711,-0.752 -1.063,-0.344 -0.341,0.345 -0.893,0.414 -1.156,0.844 -0.297,0.602 0.627,0.603 0.781,1.062 0.176,0.465 0.118,0.98 0.156,1.47 0.115,0.592 -0.529,0.625 -0.937,0.687 -0.537,0.2 -1.29,0.336 -1.594,-0.313 -0.19,-0.48 -0.165,-0.993 -0.219,-1.5 -0.013,-0.892 -0.227,-1.768 -0.28,-2.656 -0.052,-1.097 -0.242,-2.187 -0.313,-3.281 -0.01,-0.456 -0.071,-1.198 -0.72,-1.063 z m -0.625,8.25 0.313,0.031 0.03,0.375 0.032,0.375 -0.406,0.125 a 3.28,3.28 0 0 1 -0.407,0.094 2.55,2.55 0 0 1 -0.187,-0.125 c -0.22,-0.159 -0.164,-0.385 0.125,-0.688 0.163,-0.17 0.239,-0.203 0.5,-0.187 z m -29.965,-9.28 c -0.38,0.135 -0.862,0.693 -1.25,0.688 -0.88,0.062 -0.757,0.919 -0.125,1.218 0.083,0.26 0.005,0.588 0.031,0.875 0.123,0.79 -0.375,1.425 -0.281,2.22 -0.044,0.87 -0.307,1.717 -0.344,2.593 -0.247,0.903 -0.25,1.832 -0.406,2.75 -0.104,0.823 -0.7,0.533 -1.219,0.312 -0.004,-0.356 -0.027,-0.705 -0.031,-1.062 0.216,-0.817 -0.441,-1.056 -1.094,-1.156 -0.686,0.065 -1.023,-0.523 -0.875,-1.125 0.295,-0.351 1.036,-0.254 1.5,-0.313 0.981,0.204 0.942,-1.112 0.438,-1.562 -0.345,-0.636 -1.199,-0.91 -1.438,-1.563 0.096,-0.866 -0.48,-1.732 -1.187,-2.156 -1.089,-0.076 -1.91,0.863 -2.313,1.781 -0.452,0.131 -0.904,0.267 -1.344,0.438 -0.709,0.177 -1.72,1.407 -0.75,1.875 0.545,0.15 2.2,0.528 1.47,1.28 -0.413,0.708 -1.202,0.72 -1.907,0.532 -0.724,0 -1.53,-0.352 -1.5,-1.187 -0.148,-0.75 -0.123,-1.558 -0.469,-2.25 -0.148,-0.84 -1.1,-0.643 -1.156,0.125 -0.733,0.534 -0.636,1.397 -0.125,2.03 0.319,0.73 0.003,1.578 -0.313,2.25 -0.19,0.876 -1.155,0.906 -1.843,1.188 -0.338,0.131 -1.629,-0.078 -1.156,0.657 0.753,0.265 1.652,0.505 2.437,0.312 0.823,-0.102 1.538,-0.665 1.938,-1.375 0.552,-0.56 1.502,-0.267 2.218,-0.281 0.773,-0.002 1.563,0.542 2.313,0.187 0.217,-0.564 1.222,-1.495 1.531,-0.53 -0.053,0.862 0.71,1.325 1.5,1.218 0.864,-0.05 0.544,0.61 0.531,1.125 0.057,0.934 0.66,1.425 1.438,1.812 0.265,0.072 0.545,0.048 0.812,0 0.748,-0.235 1.554,-0.568 1.781,-1.406 0.304,-0.68 0.311,-1.45 0.532,-2.156 0.177,-1.13 0.406,-2.26 0.437,-3.406 0.276,-1.039 0.197,-2.136 0.406,-3.188 0.133,-0.782 0.231,-1.563 0.313,-2.344 -0.092,-0.417 -0.272,-0.487 -0.5,-0.406 z m -6.781,4.156 c 0.151,0.019 0.235,0.204 0.25,0.531 0.016,0.365 0.206,0.661 0.437,0.72 0.183,0.045 0.167,0.238 -0.03,0.374 -0.116,0.08 -0.322,0.127 -0.688,0.125 -0.578,-0.003 -0.937,-0.153 -1.25,-0.469 L 423,379.91 l 0.281,-0.188 c 0.142,-0.108 0.399,-0.332 0.563,-0.5 0.285,-0.29 0.473,-0.424 0.625,-0.406 z M 490.5,370.94 a 8.365,8.365 0 0 0 -1.656,0.25 c -1.04,-0.065 -1.563,1.027 -0.563,1.563 0.602,1.534 1.54,-0.317 2.5,-0.188 1.438,0.28 1.56,1.832 1.781,3 0.081,1.157 0.415,2.282 0.75,3.375 0.963,1.07 -0.72,1.74 -1.437,0.906 -0.611,-0.664 -1.92,-1.48 -2.656,-0.562 -0.904,0.382 -0.94,1.59 -1.688,1.937 -1.209,0.368 -1.361,-1.119 -2,-1.75 -0.587,-0.824 -1.71,-0.896 -2.625,-1.187 -0.429,-0.869 -0.205,-2.346 -1.094,-2.938 -0.745,0.304 -2.113,1.702 -0.968,2.344 1.117,0.96 -0.488,1.401 -1,2.063 -0.732,0.814 -0.849,1.936 -0.969,2.968 -1.26,0.696 -1.504,-0.787 -1.656,-1.718 -0.098,-1.112 -1.036,-0.786 -1.688,-0.375 -0.952,0.385 -1.428,1.29 -2.094,2 -0.08,0.647 0.038,1.356 0.032,2.03 0.216,0.812 1.202,0.431 1.812,0.376 0.979,-0.41 1.38,0.627 0.594,1.219 -0.532,0.676 -2.22,0.322 -2.063,1.406 0.544,0.063 1.111,0.043 1.657,0 1.09,-0.298 2.261,-1.068 2.375,-2.281 0.143,-1.059 1.667,-0.866 2.5,-1.094 1.04,-0.3 2.294,-0.377 2.53,0.937 0.71,0.745 2.25,1.584 3.032,0.563 0.795,-0.485 1.176,-1.338 1.125,-2.25 -0.162,-0.785 1.269,-0.813 1.625,-0.375 0.521,0.858 2.151,0.605 2.938,0.125 0.836,-0.617 1.017,-1.705 2.218,-1.719 1.783,-0.534 3.635,-0.841 5.375,-1.5 1.41,-0.307 -0.21,-1.198 -0.562,-1.719 -1.074,-0.53 -2.008,1.642 -3.219,0.563 -0.936,-0.716 -0.872,-2.077 -1.219,-3.125 -0.237,-1.358 -0.177,-2.923 -1.156,-4 -0.672,-0.715 -1.586,-0.887 -2.531,-0.844 z m -6.813,9.469 c 0.126,-0.003 0.268,0.06 0.5,0.187 0.439,0.242 0.751,0.643 0.75,0.969 0,0.213 -0.054,0.227 -0.375,0.375 -0.197,0.091 -0.42,0.189 -0.5,0.188 -0.18,-0.002 -0.624,-0.357 -0.625,-0.5 0,-0.06 -0.058,-0.287 -0.125,-0.47 -0.117,-0.32 -0.099,-0.316 0.063,-0.53 0.103,-0.138 0.187,-0.216 0.313,-0.22 z m 6.532,0.344 c 0.372,-0.025 0.593,0.091 0.75,0.375 0.181,0.329 0.058,0.58 -0.407,0.78 -0.203,0.089 -0.407,0.16 -0.437,0.157 -0.03,-0.003 -0.198,-0.102 -0.375,-0.219 -0.27,-0.177 -0.31,-0.264 -0.313,-0.468 -0.003,-0.316 0.35,-0.597 0.782,-0.625 z m -8.938,0.093 c 0.11,-0.017 0.209,0.04 0.344,0.156 0.18,0.155 0.237,0.28 0.281,0.594 a 2.23,2.23 0 0 1 0,0.625 c -0.048,0.226 -0.053,0.216 -0.562,0.219 -0.64,0.006 -0.7,-0.064 -0.688,-0.656 0.008,-0.377 0.012,-0.478 0.219,-0.688 0.16,-0.162 0.297,-0.233 0.406,-0.25 z m -5.5,1.438 c 0.2,0.047 0.388,0.197 0.438,0.437 0.065,0.318 0.008,0.462 -0.25,0.594 -0.222,0.113 -0.734,0.15 -0.875,0.063 a 0.613,0.613 0 0 1 -0.188,-0.188 c -0.068,-0.121 -0.055,-0.18 0.031,-0.25 0.06,-0.05 0.126,-0.12 0.125,-0.156 0,-0.037 0.068,-0.163 0.157,-0.281 a 0.543,0.543 0 0 1 0.562,-0.22 z m 9.25,1.187 a 0.651,0.651 0 0 1 0.438,0.156 c 0.185,0.163 0.179,0.4 -0.031,0.563 -0.136,0.104 -0.872,0.095 -1.125,0 -0.113,-0.042 -0.156,-0.099 -0.157,-0.219 -0.002,-0.14 0.038,-0.227 0.281,-0.344 0.205,-0.097 0.416,-0.155 0.594,-0.156 z m -17.171,4.819 c -0.096,-0.063 -0.238,-0.117 -0.095,-0.222 0.173,-0.302 0.518,-0.407 0.825,-0.52 a 3.436,3.436 0 0 0 1.373,-1.118 c 0.05,-0.333 0.424,-0.513 0.422,-0.861 0.003,-0.475 0.032,-0.962 -0.084,-1.426 -0.129,-0.426 -0.452,-0.752 -0.827,-0.974 -0.256,-0.202 -0.674,-0.258 -0.768,-0.614 -0.053,-0.343 0.253,-0.604 0.36,-0.91 0.223,-0.421 0.411,-0.863 0.651,-1.275 0.26,-0.288 0.659,-0.015 0.793,0.263 0.19,0.277 0.357,0.576 0.45,0.897 0.303,0.332 0.571,0.721 0.68,1.162 0.148,0.31 0.383,0.602 0.369,0.966 0,0.416 0.235,0.787 0.22,1.206 0.014,0.56 0.013,1.145 -0.191,1.674 -0.14,0.294 -0.421,0.47 -0.607,0.733 -0.319,0.295 -0.67,0.579 -1.08,0.736 -0.289,0.092 -0.457,0.426 -0.819,0.345 -0.514,0.009 -1.037,0.079 -1.547,-0.004 0.032,0.054 -0.156,-0.092 -0.125,-0.058 z m -6.85,0.45 c -0.243,-0.25 -0.295,-0.355 -0.298,-0.6 -0.003,-0.248 0.045,-0.346 0.282,-0.586 0.439,-0.443 0.653,-0.453 1.41,-0.07 0.722,0.365 0.967,0.399 1.032,0.14 0.062,-0.25 0.478,-0.48 0.874,-0.481 a 0.82,0.82 0 0 1 0.592,0.203 c 0.251,0.196 0.263,0.227 0.27,0.68 0.004,0.463 -0.002,0.48 -0.29,0.736 -0.278,0.244 -0.323,0.259 -0.666,0.224 -0.437,-0.043 -0.7,-0.244 -0.77,-0.588 -0.052,-0.25 -0.14,-0.31 -0.206,-0.14 -0.021,0.055 -0.129,0.122 -0.239,0.15 -0.204,0.051 -0.549,0.268 -0.794,0.5 -0.093,0.087 -0.255,0.128 -0.519,0.131 -0.355,0.003 -0.405,-0.018 -0.678,-0.299 z m -19.82,-8.9 c -0.665,0.007 -1.38,0.566 -1.469,1.219 0.152,0.752 0.777,1.49 0.375,2.281 0.278,1.013 -0.761,1.397 -1.469,0.813 -0.427,-0.972 -0.643,-2.036 -1.28,-2.907 -0.805,-0.227 -1.155,1.057 -1.72,1.5 0.28,0.755 1.096,1.433 1.188,2.375 0.195,0.915 -0.361,1.93 -1.156,2.406 -0.686,0.655 -1.626,0.421 -2.47,0.563 -1.023,0.599 0.753,0.818 1.22,0.844 1.047,0.106 2.135,-0.032 2.906,-0.813 0.769,-0.367 0.71,-1.697 1.625,-1.844 1.588,-0.07 3.163,0.244 4.75,0.282 0.85,0.203 2.163,-0.101 2.75,0.53 0.002,1.108 0.94,1.791 1.844,2.22 0.498,0.138 1.024,-0.48 1.53,-0.594 0.966,-0.308 0.673,-1.502 1.25,-1.969 1.651,-0.09 3.317,-0.07 4.97,-0.093 0.314,0.007 0.407,-0.44 0.625,-0.626 -0.037,-0.638 -0.06,-1.272 -0.157,-1.906 -0.318,-0.806 0.052,-1.844 -0.53,-2.53 -0.83,-0.227 -1.537,0.533 -2.376,0.593 -0.926,0.412 -1.706,1.268 -1.75,2.312 -0.548,0.897 -1.427,-0.16 -1.125,-0.906 -0.034,-0.325 0.07,-0.704 -0.031,-1 -0.507,-0.608 -1.395,-0.41 -2.094,-0.5 -1.018,0.04 -2.012,-0.18 -3.031,-0.156 -0.893,-0.068 -1.822,0.078 -2.688,-0.156 -1.031,-0.03 -0.89,-1.039 -1.062,-1.75 a 1.018,1.018 0 0 0 -0.625,-0.188 z m 2,3.688 c 0.343,0.006 0.667,0.051 1,0.093 0.43,0.071 0.89,-0.148 1.313,0 0.976,0.166 1.953,0.127 2.937,0.219 0.26,-0.004 0.446,0.185 0.625,0.344 0.002,0.683 0,1.379 0,2.062 -0.03,0.258 0.076,0.598 -0.156,0.781 a 0.7,0.7 0 0 1 -0.25,0.125 c -0.27,-0.07 -0.558,-0.247 -0.688,-0.5 -0.041,-0.357 0.018,-0.704 0.031,-1.062 -0.007,-0.093 0.04,-0.237 0,-0.313 a 1.248,1.248 0 0 0 -0.718,-0.25 c -0.85,-0.029 -1.682,-0.091 -2.531,-0.125 -0.707,-0.044 -1.434,0.06 -2.125,-0.125 -0.269,-0.097 -0.618,-0.064 -0.782,-0.343 -0.234,-0.273 0.104,-0.597 0.344,-0.72 a 2.28,2.28 0 0 1 1,-0.187 z m 11.281,0.25 c 0.159,-0.003 0.21,0.05 0.281,0.343 0.046,0.188 0.1,0.417 0.125,0.5 0.037,0.118 -0.022,0.156 -0.187,0.219 -0.494,0.186 -0.986,0.168 -1.156,-0.063 -0.078,-0.104 0.012,-0.434 0.156,-0.562 0.29,-0.259 0.61,-0.437 0.781,-0.438 z"
               id="path16" /></g></g><path
           stroke-width="1.15"
           d="m 449.98,327.23 c 32.642,-25.106 29.843,-61.883 29.843,-61.883 a 12.72,12.72 0 0 1 -2.54,0.258 c -6.848,0 -23.179,-3.917 -26.989,-8.892 -4.081,4.503 -20.77,8.892 -27.574,8.892 -0.861,0 -1.722,-0.086 -2.54,-0.258 0,0 -2.843,36.776 29.8,61.883 z"
           id="path17" /><path
           stroke-width="0.916"
           d="m 477.22,268.04 a 13.55,13.55 0 0 1 -0.848,0.026 c -6.205,0 -20.619,-3.183 -26.175,-7.957 -5.82,4.41 -20.47,7.957 -26.576,7.957 a 4.7,4.7 0 0 1 -0.85,-0.086 c -0.014,1.39 0.059,2.832 0.145,4.144 0.323,4.9 1.183,9.819 2.488,14.552 4.108,14.895 12.516,27.553 24.572,37.155 12.066,-9.61 20.484,-22.28 24.6,-37.186 1.308,-4.732 2.17,-9.65 2.496,-14.55 0.086,-1.285 0.157,-2.692 0.148,-4.055 z"
           id="path18" /><path
           fill="#c09300"
           d="m 439.38,265.03 c -5.872,1.845 -12.229,3.031 -15.75,3.031 -0.286,0 -0.563,-0.042 -0.844,-0.093 -0.014,1.39 0.07,2.845 0.156,4.156 0.323,4.9 1.164,9.8 2.47,14.53 2.764,10.026 7.506,19.033 13.968,26.782 z M 460,264.94 v 49.25 c 6.794,-7.921 11.733,-17.206 14.594,-27.562 a 72.952,72.952 0 0 0 2.469,-14.531 c 0.085,-1.284 0.166,-2.7 0.156,-4.063 -0.28,0.018 -0.56,0.032 -0.844,0.032 -3.73,0 -10.42,-1.17 -16.375,-3.125 z"
           stroke="none"
           id="path19" /><g
           stroke-width="1.27"
           id="g23"><path
             stroke-width="1.218"
             d="m 462.31,253.09 c 0.667,0.04 -0.902,-3.568 -0.902,-3.568 1.765,1.804 8.43,2.235 8.43,2.235 -4,-1.766 -7.998,-15.096 -7.528,-25.721 0.432,-10.664 -1.528,-14.86 -3.097,-16.428 -2,-2 -8.43,-3.764 -12.664,-4 -2.392,-0.117 -2,1.804 -2,1.804 -4.43,-1.137 -8.86,-1.568 -10.86,-0.235 -1.883,1.255 -2.275,7.528 -0.902,6.43 3.332,-2.666 6.234,-0.235 8.233,2.666 1.764,2.549 1.647,9.763 -0.902,18.192 -2.666,8.861 -9.959,17.722 -9.959,17.722 3.96,0 9.528,-3.528 9.528,-3.528 l -1.333,5.528 c 4.195,-2 7.528,-5.097 7.528,-5.097 l 3.999,4.195 c 1.333,-1.764 4,-4.195 4,-4.195 0,0 3.332,3.529 8.429,4 z"
             id="path20" /><path
             fill="none"
             d="m 446.12,227.57 c 0,0 -2.235,16.428 -6.43,21.094 m 9.96,-21.524 c 0,0 -0.863,16.623 -3.764,21.956 m 6.894,-21.286 c 0,0 0,18.192 1.098,21.289 m 2.862,-20.389 c 0,0 0.902,15.291 4.666,20.819"
             id="path21" /><path
             fill="#c09300"
             stroke-width="0.354"
             d="m 442.08,219.61 c -0.196,-1.45 -0.549,-2.588 -1.059,-3.333 -2,-2.901 -4.9,-5.332 -8.233,-2.666 0,0 1.137,-3.529 3.568,-3.646 1.882,-0.118 6.155,1.411 9.92,7.841 0,0 -2.784,-0.627 -3.45,-0.039 -1.256,1.098 -0.746,1.843 -0.746,1.843 z"
             id="path22" /><path
             fill="#c09300"
             stroke-width="0.354"
             d="m 432.44,209.26 c 0.274,-0.902 0.706,-1.725 1.255,-2.078 2,-1.333 6.43,-0.902 10.86,0.235 0,0 -0.392,-1.921 2,-1.803 4.234,0.235 10.664,2 12.663,3.999 0.47,0.51 1.02,1.255 1.49,2.391 h -0.078 c -0.98,-1.372 -3.764,-1.293 -4.431,-1.215 -1.059,0.118 -1.725,0.078 -3.137,0.431 -0.666,0.157 -1.686,0.353 -2.235,0.784 -0.43,0.353 -0.784,1.647 -1.45,1.647 -1.059,0 -0.98,-0.274 -1.255,-0.588 -0.353,-0.431 -0.549,-1.059 -0.902,-1.02 -1.097,0.197 -2.862,-0.666 -5.096,-2.43 -2.235,-1.765 -3.098,-2.196 -5.999,-2 -2.862,0.235 -3.764,1.843 -3.764,1.843 z"
             id="path23" /><circle
             cx="448.82401"
             cy="210.672"
             r="1.176"
             stroke="none"
             id="circle23" /></g></g></g></g></svg>
